#!OML:ASF E:/inclinewalkrobotboard/Project1/Captureday1/Session1/subject1.ASF
:FULLY-SPECIFIED
:DEGREES
1
root 0 0 0 -0.9692333100326925 -2.8994271030380174 -0.6685590097797621
lowerback 11.024341400322735 0.5853999987698784 0.4193357344160755
upperback -1.3656270602172274 0.8958520842877385 0.799167410012184
thorax -7.61763320155412 0.41468812530532156 0.3526840325045452
lowerneck -12.85081998206207 -1.1751983455530022 0.5453918202091135
upperneck 19.020067223490663 -1.0499573456397577 -2.8050254586734527
head 8.110179272652525 -0.6591417306688496 -1.1728961374034856
rclavicle -4.781807634076814E-16 -4.468710969727654E-16
rhumerus -7.195537117694419 -3.7032538493991014 -64.4442323979203
rradius 47.241263692590934
rwrist 14.177812883456475
rhand -25.13008566082113 -12.951184161258178
rfingers 7.125020000000114
rthumb 1.5713699568467265 -43.026755192482575
lclavicle -9.019069793785534E-16 -8.676804263770347E-16
lhumerus -6.241566779503534 -5.596679208269228 64.31004204295841
lradius 48.53641400668188
lwrist -8.406015648011795
lhand -35.4271741731291 -21.893715391449064
lfingers 7.125020000000103
lthumb -8.623499959541078 7.198251694844959
rfemur -6.126728235409578 6.589726560325186 29.708648677500047
rtibia 32.62543942145117
rfoot -10.268731503035609 -5.360136787961478
rtoes 4.41020746059746
lfemur -2.5138082887037765 1.132258329393136 -19.59287867749838
ltibia 56.750193511921196
lfoot 4.399196574451244 -14.133767079847214
ltoes -7.1346258490084695
2
root 0 0 0 -1.0846436100813297 -2.8696778640431915 -0.792332352471995
lowerback 10.979649647235034 0.5718368495876456 0.45069601002350074
upperback -1.2170592729244043 0.8867101938046296 0.8671459128719392
thorax -7.4256745022873805 0.4092931358593952 0.4088393842733682
lowerneck -13.178970984812231 -1.3130557679771526 0.35026072354517995
upperneck 19.039592072670597 -1.2588061336768548 -2.535558837787438
head 8.171589871735652 -0.7483194611089952 -1.0734835367279119
rclavicle -4.731767339706423E-16 -3.5555731024204066E-16
rhumerus -9.396226927356235 -5.180528771067285 -65.80441563345799
rradius 45.18670261727217
rwrist 13.138857075636068
rhand -24.396898199096565 -9.40128554987754
rfingers 7.125020000000124
rthumb 2.3039652357690237 -39.506827345962805
lclavicle -9.372654348712015E-16 -8.310234534075934E-16
lhumerus -9.212604431691352 -4.874796400432159 66.43157307701125
lradius 46.19833620093719
lwrist -6.816343037384394
lhand -34.40725462237087 -16.546165605142452
lfingers 7.1250200000001165
lthumb -7.651750444209735 12.518715922177979
rfemur 4.17004097092763 8.223860015528107 34.224416003911465
rtibia 28.111152038575845
rfoot -13.980322886716554 -3.828379687222971
rtoes 5.238640911669383
lfemur -9.246041076093416 1.507807323681237 -16.495453717577377
ltibia 59.99499338536516
lfoot 6.565252470328497 -13.646398159733181
ltoes -6.474077492745531
3
root 0 0 0 -1.1307197558884274 -2.858485321893203 -0.8411691713243674
lowerback 10.962074010542382 0.5668458063787355 0.4650396884865863
upperback -1.158829521677538 0.8835995457437383 0.8936175829944082
thorax -7.349518002685246 0.40706458141423957 0.4303925455432389
lowerneck -13.309586050572813 -1.3681970051070727 0.2734692163198092
upperneck 19.046453317619132 -1.3416464906305672 -2.427732517204615
head 8.195409038296885 -0.7836586652546005 -1.0336444665881612
rclavicle -4.698098417768723E-16 -3.1070762344252273E-16
rhumerus -10.339494882614378 -5.808924349485631 -66.39018890059027
rradius 44.30202750947727
rwrist 12.692556360987096
rhand -24.08205939905597 -7.869334920600371
rfingers 7.125020000000127
rthumb 2.6205602306795086 -37.9869748342093
lclavicle -9.610097818772178E-16 -8.157632649067759E-16
lhumerus -10.72240365097571 -4.508816477988896 67.50749492683704
lradius 45.006684243672254
lwrist -6.0008736523463915
lhand -33.88909821858088 -13.810579760071423
lfingers 7.125020000000123
lthumb -7.157562342055133 15.245485516763472
rfemur 10.103778867752748 8.785384298267305 36.62012108003907
rtibia 28.081375235576047
rfoot -15.280051801057068 -2.681727929186369
rtoes 6.119176029762637
lfemur -17.85059832664791 1.6804936900783463 -12.96461616553632
ltibia 61.31044765956605
lfoot 7.630329134108463 -11.788936277612992
ltoes -5.4881484355667585
4
root 0 0 0 -1.139743380154801 -2.8572977524613408 -0.8496406720742329
lowerback 10.959107468219276 0.5664161625054971 0.46896259924722666
upperback -1.1491064385693526 0.8835275626257807 0.8981593439668253
thorax -7.336154612386445 0.40674395163914073 0.43377217460024003
lowerneck -13.333736547001909 -1.3780748458673022 0.25971624514884645
upperneck 19.048591660259937 -1.3554753589481727 -2.407501422275664
head 8.199683511339416 -0.7897802115984249 -1.0263885799231716
rclavicle -4.699153227391977E-16 -3.0164501543793464E-16
rhumerus -10.50029387642008 -5.914746044705515 -66.49207411967237
rradius 44.15145776684969
rwrist 12.614780908443356
rhand -24.028636593009946 -7.606640659244288
rfingers 7.125020000000128
rthumb 2.674639863049956 -37.72206617872174
lclavicle -9.695910232719697E-16 -8.090903305967127E-16
lhumerus -11.261823413210237 -4.377497620705002 67.88913661059941
lradius 44.58205943954788
lwrist -5.710770151505321
lhand -33.705189408345056 -12.836961601735052
lfingers 7.1250200000001245
lthumb -6.981799856794959 16.21897183045691
rfemur 12.639246556622272 8.730439435499415 37.49726448682547
rtibia 30.036289061333832
rfoot -15.189352715223633 -1.975622250854026
rtoes 6.808852371303002
lfemur -25.744044591298277 1.3598472515728708 -10.276436822665794
ltibia 58.664452335134015
lfoot 6.826952024549241 -8.572212998727803
ltoes -3.9330393893348203
5
root 0 0 0 -1.1364520249659158 -2.8592260279581363 -0.8449363073358627
lowerback 10.960911385066327 0.567399844866221 0.46902064222567685
upperback -1.1550578474628974 0.8843316105292105 0.8955210566066716
thorax -7.3432342293215775 0.40704891414400685 0.4313970231156763
lowerneck -13.32273112111981 -1.3729446780846504 0.26654753575919715
upperneck 19.049160915147954 -1.3467534683460078 -2.4161568976139005
head 8.197571375036304 -0.7862704399587499 -1.0299419505093497
rclavicle -4.713573940678782E-16 -3.048369291050699E-16
rhumerus -10.422704811564572 -5.862335502856929 -66.44672096915893
rradius 44.223136321113145
rwrist 12.649303602275227
rhand -24.054432447372825 -7.729738469191528
rfingers 7.125020000000128
rthumb 2.6487237929378793 -37.841003093792146
lclavicle -9.75102294306823E-16 -8.040394856393619E-16
lhumerus -11.447713870606103 -4.331536542793392 68.0195738524358
lradius 44.4367853647724
lwrist -5.6130721540982575
lhand -33.64295211743476 -12.510718363688143
lfingers 7.125020000000125
lthumb -6.921743716238504 16.551290859414152
rfemur 13.709488375395289 8.51595964116078 37.773782565889555
rtibia 32.14123857949197
rfoot -14.726156497576005 -1.5342814518142793
rtoes 7.322889513691705
lfemur -31.60769929356499 0.5915830604103754 -8.723174201055029
ltibia 52.74687224759201
lfoot 4.745431636650666 -4.74767081692046
ltoes -2.005285647354815
6
root 0 0 0 -1.1319764457844599 -2.8611308504398796 -0.8395059800965492
lowerback 10.962992819823063 0.5683596952925668 0.46838351618191276
upperback -1.1618607664282017 0.8849896203719196 0.8923355280784967
thorax -7.351439255131824 0.40738390388800777 0.4287587070203748
lowerneck -13.309062720985805 -1.3668217235142035 0.27478924551917144
upperneck 19.049197681772057 -1.336762080991547 -2.4270051862393607
head 8.194956371775518 -0.7821406993767628 -1.0342146380639494
rclavicle -4.710688396330983E-16 -3.0740906041036236E-16
rhumerus -10.3585214619144 -5.818305648322965 -66.40892780986344
rradius 44.28180704450542
rwrist 12.678083017704402
rhand -24.07570339585803 -7.8299248630587694
rfingers 7.125020000000128
rthumb 2.627379004644416 -37.94020131583963
lclavicle -9.813624070656581E-16 -7.99356075105073E-16
lhumerus -11.576487394809156 -4.299285356081633 68.11069044293129
lradius 44.33480047029013
lwrist -5.54512343710641
lhand -33.59944805648067 -12.282421154744878
lfingers 7.125020000000126
lthumb -6.879577515915287 16.782812524728367
rfemur 14.148535591252298 8.274539147227491 37.81206422034931
rtibia 34.03653322227546
rfoot -14.192941766812378 -1.2378287291132315
rtoes 7.718334178352227
lfemur -34.83738800849162 -0.4632572096791373 -8.246822390512717
ltibia 44.871084990230216
lfoot 1.9242423363819832 -0.995778015487236
ltoes -0.3238805487555645
7
root 0 0 0 -1.1307855484206857 -2.8617773759912697 -0.8380561676713354
lowerback 10.963565693225858 0.5687135437201362 0.46827537282314147
upperback -1.1637185694384051 0.8851039433927665 0.8913210081712793
thorax -7.353331377644351 0.4075073671488307 0.42799652702471036
lowerneck -13.30554230394074 -1.365195474879341 0.27689887944285513
upperneck 19.049149361364876 -1.3339746983912728 -2.429628747625276
head 8.194163679951535 -0.7809619713349116 -1.0352917534915624
rclavicle -4.688708402544936E-16 -3.052037785443488E-16
rhumerus -10.3869089706742 -5.835406019277129 -66.42759386653435
rradius 44.253496396433235
rwrist 12.663953956967127
rhand -24.06606660675642 -7.78021844113476
rfingers 7.125020000000128
rthumb 2.6369604808661915 -37.89116150580253
lclavicle -9.863825024689065E-16 -7.961034852219916E-16
lhumerus -11.729406035659988 -4.261481941660962 68.2200095610582
lradius 44.211540710303304
lwrist -5.462229256827124
lhand -33.546689277455435 -12.001677923563092
lfingers 7.125020000000127
lthumb -6.8289981021235375 17.06286902770556
rfemur 14.21654272109835 8.030356569181954 37.71700755978928
rtibia 35.72841352341672
rfoot -13.635752798308602 -1.0331064149146592
rtoes 8.036512161097432
lfemur -35.02054813857905 -1.6646990572272542 -8.902930253996558
ltibia 36.0894832671124
lfoot -1.3370016399702962 2.1873676277839937
ltoes 0.7892580889701222
